<?xml version="1.0" encoding="UTF-8" standalone="no"?>
<svg
   xmlns:dc="http://purl.org/dc/elements/1.1/"
   xmlns:cc="http://creativecommons.org/ns#"
   xmlns:rdf="http://www.w3.org/1999/02/22-rdf-syntax-ns#"
   xmlns:svg="http://www.w3.org/2000/svg"
   xmlns="http://www.w3.org/2000/svg"
   xmlns:sodipodi="http://sodipodi.sourceforge.net/DTD/sodipodi-0.dtd"
   xmlns:inkscape="http://www.inkscape.org/namespaces/inkscape"
   viewBox="0 0 536.4267 250.88"
   height="250.88"
   width="536.4267"
   xml:space="preserve"
   id="svg2"
   version="1.1"
   sodipodi:docname="bo.svg"
   inkscape:version="0.92.2 5c3e80d, 2017-08-06"><sodipodi:namedview
     pagecolor="#ffffff"
     bordercolor="#666666"
     borderopacity="1"
     objecttolerance="10"
     gridtolerance="10"
     guidetolerance="10"
     inkscape:pageopacity="0"
     inkscape:pageshadow="2"
     inkscape:window-width="1280"
     inkscape:window-height="739"
     id="namedview116"
     showgrid="false"
     inkscape:zoom="0.90177189"
     inkscape:cx="362.88758"
     inkscape:cy="240.08289"
     inkscape:window-x="0"
     inkscape:window-y="35"
     inkscape:window-maximized="1"
     inkscape:current-layer="svg2" /><metadata
     id="metadata8"><rdf:RDF><cc:Work
         rdf:about=""><dc:format>image/svg+xml</dc:format><dc:type
           rdf:resource="http://purl.org/dc/dcmitype/StillImage" /><dc:title></dc:title></cc:Work></rdf:RDF></metadata><defs
     id="defs6" /><g
     transform="matrix(1.3333333,0,0,-1.3333333,-24.396413,415.00132)"
     id="g10"><g
       transform="matrix(0.1,0,0,0.1,1.6633919,-0.83169593)"
       id="g12"><path
         id="path16"
         style="fill:none;stroke:#ffffff;stroke-width:39.11220169;stroke-linecap:round;stroke-linejoin:round;stroke-miterlimit:10;stroke-dasharray:none;stroke-opacity:1"
         d="m 1584.65,1968.14 -536.99,537.02 536.99,537"
         inkscape:connector-curvature="0" /><path
         id="path18"
         style="fill:none;stroke:#ffffff;stroke-width:39.11220169;stroke-linecap:round;stroke-linejoin:round;stroke-miterlimit:10;stroke-dasharray:none;stroke-opacity:1"
         d="M 1361.25,2483.73 1898.28,1946.75 1613.05,1661.5"
         inkscape:connector-curvature="0" /><path
         id="path20"
         style="fill:none;stroke:#393536;stroke-width:39.11220169;stroke-linecap:round;stroke-linejoin:round;stroke-miterlimit:10;stroke-dasharray:none;stroke-opacity:1"
         d="m 1694.88,2458.18 571.05,576.58 1660.35,-1638.99"
         inkscape:connector-curvature="0" /><path
         id="path22"
         style="fill:none;stroke:#393536;stroke-width:39.11220169;stroke-linecap:round;stroke-linejoin:round;stroke-miterlimit:10;stroke-dasharray:none;stroke-opacity:1"
         d="M 635.355,1388.34 1261.45,2020.5"
         inkscape:connector-curvature="0" /><path
         id="path24"
         style="fill:#393536;fill-opacity:1;fill-rule:nonzero;stroke:none"
         d="m 908.051,1438.28 -1.66,5.38 c -0.078,-0.22 -0.184,-0.59 -0.321,-1.15 -0.09,-0.53 -0.265,-1.11 -0.5,-1.77 -0.164,-0.76 -0.496,-1.61 -0.808,-2.46 -1.379,-3.15 -2.688,-6.25 -3.879,-9.25 -1.082,-2.63 -2.246,-5.44 -3.399,-8.49 -1.218,-3.04 -2.304,-5.72 -3.269,-8.14 H 919 Z m -59.813,-70.95 h 13.25 c 7.481,17.91 15,35.62 22.559,53.14 7.519,17.53 15.031,35.26 22.519,53.15 7.461,-17.89 14.993,-35.62 22.539,-53.15 7.571,-17.52 15.04,-35.23 22.532,-53.14 h 13.457 v -12.84 h -35.989 v 12.84 h 9.043 c -2.273,5.42 -4.558,10.79 -6.804,16.11 -2.239,5.3 -4.492,10.67 -6.778,16.09 h -35.91 l -13.652,-32.2 h 9.355 v -12.84 h -36.121 v 12.84"
         inkscape:connector-curvature="0" /><path
         id="path26"
         style="fill:#393536;fill-opacity:1;fill-rule:nonzero;stroke:none"
         d="m 1141.47,1468.39 h 18.2 v -12.86 h -14.13 v -88.2 h 14.13 v -12.84 h -39.33 v 12.84 h 11.68 v 63.64 c 0.11,0.85 0.19,1.76 0.28,2.6 0.04,0.88 0.1,1.72 0.21,2.61 -0.87,-1.21 -1.74,-2.47 -2.62,-3.76 -0.84,-1.29 -1.71,-2.54 -2.61,-3.71 -6.48,-9.26 -13.34,-18.29 -20.45,-27.13 -7.11,-8.85 -14.1,-17.78 -20.93,-26.75 l -43.53,56.94 -2.94,4.41 c 0.11,-0.89 0.17,-1.73 0.26,-2.61 0.05,-0.84 0.1,-1.75 0.23,-2.6 v -63.64 h 11.74 v -12.84 h -39.4 v 12.84 h 14.17 v 88.2 h -14.17 v 12.86 h 18.21 c 9.32,-12.05 18.59,-24.07 27.71,-36.03 9.13,-12.01 18.42,-24.01 27.72,-36.08 9.34,12.07 18.6,24.07 27.78,36.08 9.19,11.96 18.45,23.98 27.79,36.03"
         inkscape:connector-curvature="0" /><path
         id="path28"
         style="fill:#393536;fill-opacity:1;fill-rule:nonzero;stroke:none"
         d="m 1266.68,1438.28 -1.61,5.38 c -0.07,-0.22 -0.22,-0.59 -0.31,-1.15 -0.13,-0.53 -0.29,-1.11 -0.5,-1.77 -0.21,-0.76 -0.51,-1.61 -0.82,-2.46 -1.41,-3.15 -2.7,-6.25 -3.91,-9.25 -1.08,-2.63 -2.25,-5.44 -3.4,-8.49 -1.21,-3.04 -2.29,-5.72 -3.27,-8.14 h 24.79 z m -59.78,-70.95 h 13.24 c 7.47,17.91 14.99,35.62 22.55,53.14 7.53,17.53 15.05,35.26 22.53,53.15 7.51,-17.89 15.02,-35.62 22.57,-53.15 7.51,-17.52 15.03,-35.23 22.53,-53.14 h 13.4 v -12.84 h -35.93 v 12.84 h 9.02 c -2.32,5.42 -4.57,10.79 -6.81,16.11 -2.21,5.3 -4.48,10.67 -6.76,16.09 h -35.89 l -13.66,-32.2 h 9.34 v -12.84 h -36.13 v 12.84"
         inkscape:connector-curvature="0" /><path
         id="path30"
         style="fill:#393536;fill-opacity:1;fill-rule:nonzero;stroke:none"
         d="m 1368.49,1369.59 v 18.91 h 12.82 v -14.47 c 2.86,-2.2 6.2,-4.06 10.1,-5.63 3.9,-1.59 8.33,-2.37 13.19,-2.37 2.81,0 5.54,0.41 8.13,1.21 2.63,0.85 4.95,2.01 6.93,3.61 2.01,1.56 3.59,3.53 4.78,5.9 1.24,2.4 1.8,5.18 1.8,8.32 0,5.65 -1.31,9.99 -3.91,13.01 -2.59,3.04 -5.85,5.42 -9.75,7.07 -3.9,1.7 -8.14,3.15 -12.69,4.34 -4.58,1.19 -8.83,2.83 -12.79,4.86 -3.95,2.1 -7.27,4.93 -9.93,8.63 -2.64,3.66 -4.04,8.9 -4.13,15.64 -0.11,3.56 0.37,7.14 1.46,10.72 1.07,3.57 2.86,6.84 5.36,9.77 2.51,2.91 5.82,5.34 9.92,7.16 4.13,1.87 9.2,2.76 15.15,2.76 1.97,0 4.08,-0.08 6.34,-0.34 2.3,-0.17 4.66,-0.62 7.17,-1.29 2.5,-0.63 5.06,-1.63 7.74,-2.9 2.64,-1.31 5.29,-3.05 7.88,-5.22 v -15.96 h -12.84 v 9.59 c -2.05,0.88 -4.44,1.64 -7.16,2.3 -2.74,0.66 -5.71,0.97 -8.96,0.97 -6.33,0 -10.95,-1.78 -14,-5.37 -3.04,-3.57 -4.57,-7.81 -4.57,-12.68 0,-3.25 0.78,-5.89 2.29,-7.9 1.52,-2.01 3.53,-3.69 6.04,-5.05 2.46,-1.33 5.32,-2.51 8.54,-3.48 3.19,-0.97 6.45,-2.07 9.77,-3.18 3.28,-1.13 6.55,-2.5 9.75,-4.06 3.2,-1.59 6.04,-3.64 8.55,-6.2 2.48,-2.55 4.46,-5.69 6.02,-9.45 1.52,-3.73 2.28,-8.36 2.28,-13.89 0,-4.88 -0.92,-9.26 -2.7,-13.2 -1.8,-3.89 -4.24,-7.21 -7.35,-10 -3.07,-2.77 -6.66,-4.87 -10.81,-6.37 -4.14,-1.42 -8.43,-2.19 -13,-2.19 -4.13,0 -8.17,0.46 -12.05,1.38 -3.87,0.95 -7.46,2.13 -10.75,3.69 -3.25,1.51 -6.16,3.25 -8.7,5.18 -2.55,1.97 -4.52,4.03 -5.92,6.18"
         inkscape:connector-curvature="0" /><path
         id="path32"
         style="fill:#ffffff;fill-opacity:1;fill-rule:nonzero;stroke:none"
         d="m 1638.03,1369.59 v 18.91 h 12.84 v -14.47 c 2.82,-2.2 6.2,-4.06 10.09,-5.63 3.94,-1.59 8.32,-2.37 13.21,-2.37 2.81,0 5.49,0.41 8.09,1.21 2.65,0.85 4.92,2.01 6.93,3.61 1.98,1.56 3.59,3.53 4.84,5.9 1.16,2.4 1.77,5.18 1.77,8.32 0,5.65 -1.32,9.99 -3.92,13.01 -2.6,3.04 -5.87,5.42 -9.76,7.07 -3.88,1.7 -8.14,3.15 -12.67,4.34 -4.55,1.19 -8.83,2.83 -12.78,4.86 -3.97,2.1 -7.28,4.93 -9.94,8.63 -2.64,3.66 -4.04,8.9 -4.15,15.64 -0.09,3.56 0.39,7.14 1.46,10.72 1.07,3.57 2.87,6.84 5.37,9.77 2.48,2.91 5.83,5.34 9.94,7.16 4.11,1.87 9.17,2.76 15.13,2.76 1.96,0 4.06,-0.08 6.35,-0.34 2.26,-0.17 4.65,-0.62 7.16,-1.29 2.51,-0.63 5.05,-1.63 7.72,-2.9 2.66,-1.31 5.27,-3.05 7.9,-5.22 v -15.96 h -12.87 v 9.59 c -2.04,0.88 -4.46,1.64 -7.13,2.3 -2.74,0.66 -5.73,0.97 -8.95,0.97 -6.32,0 -10.97,-1.78 -14,-5.37 -3.07,-3.57 -4.57,-7.81 -4.57,-12.68 0,-3.25 0.76,-5.89 2.26,-7.9 1.53,-2.01 3.55,-3.69 6.06,-5.05 2.45,-1.33 5.33,-2.51 8.53,-3.48 3.19,-0.97 6.44,-2.07 9.76,-3.18 3.31,-1.13 6.54,-2.5 9.76,-4.06 3.2,-1.59 6.07,-3.64 8.52,-6.2 2.5,-2.55 4.51,-5.69 6.03,-9.45 1.52,-3.73 2.3,-8.36 2.3,-13.89 0,-4.88 -0.91,-9.26 -2.67,-13.2 -1.82,-3.89 -4.26,-7.21 -7.35,-10 -3.1,-2.77 -6.7,-4.87 -10.81,-6.37 -4.15,-1.42 -8.47,-2.19 -13.03,-2.19 -4.11,0 -8.13,0.46 -12.05,1.38 -3.88,0.95 -7.5,2.13 -10.75,3.69 -3.24,1.51 -6.14,3.25 -8.71,5.18 -2.52,1.97 -4.51,4.03 -5.91,6.18"
         inkscape:connector-curvature="0" /><path
         id="path34"
         style="fill:#ffffff;fill-opacity:1;fill-rule:nonzero;stroke:none"
         d="m 1845.19,1443.32 v 9.94 c -5.44,2.41 -11.08,3.58 -16.94,3.58 -6.17,0 -11.94,-1.17 -17.33,-3.58 -5.36,-2.37 -10.1,-5.69 -14.16,-9.82 -4.06,-4.25 -7.23,-9.04 -9.59,-14.6 -2.36,-5.5 -3.49,-11.39 -3.49,-17.58 0,-6.19 1.13,-12.02 3.49,-17.57 2.36,-5.53 5.53,-10.34 9.59,-14.39 4.06,-4.07 8.8,-7.29 14.16,-9.71 5.39,-2.37 11.16,-3.56 17.33,-3.56 8.03,0 15.46,2.02 22.27,6.05 l 7.35,-10.77 c -4.35,-2.51 -8.98,-4.46 -13.92,-5.96 -4.92,-1.42 -10.17,-2.19 -15.7,-2.19 -8.01,0 -15.58,1.53 -22.6,4.57 -7.07,3.04 -13.2,7.19 -18.48,12.47 -5.27,5.25 -9.43,11.39 -12.46,18.45 -3.04,7.05 -4.55,14.59 -4.55,22.61 0,8.02 1.51,15.59 4.55,22.71 3.03,7.09 7.19,13.29 12.46,18.56 5.28,5.27 11.41,9.44 18.48,12.52 7.02,3.14 14.59,4.68 22.6,4.68 5.53,0 10.78,-0.75 15.7,-2.18 4.94,-1.38 9.65,-3.4 14.08,-5.99 v -18.24 h -12.84"
         inkscape:connector-curvature="0" /><path
         id="path36"
         style="fill:#ffffff;fill-opacity:1;fill-rule:nonzero;stroke:none"
         d="m 1996.34,1468.39 h 39.38 v -12.86 h -12.84 v -88.2 h 12.84 v -12.84 h -39.38 v 12.84 h 13.05 v 38.05 h -61.52 v -38.05 h 13 v -12.84 h -39.38 v 12.84 h 12.86 v 88.2 h -12.86 v 12.86 h 39.38 v -12.86 h -13 v -37.25 h 61.52 v 37.25 h -13.05 v 12.86"
         inkscape:connector-curvature="0" /><path
         id="path38"
         style="fill:#ffffff;fill-opacity:1;fill-rule:nonzero;stroke:none"
         d="m 2099.17,1367.33 h 9.14 v 88.2 h -9.14 v 12.86 h 79.3 v -25.07 h -12.88 v 12.21 h -43.76 v -37.25 h 50.26 v -12.9 h -50.26 v -38.05 h 46.07 v 12.22 h 12.82 v -25.06 h -81.55 v 12.84"
         inkscape:connector-curvature="0" /><path
         id="path40"
         style="fill:#ffffff;fill-opacity:1;fill-rule:nonzero;stroke:none"
         d="m 2244.2,1367.33 h 14.14 v 88.2 h -14.14 v 12.86 h 18.86 l 78.61,-85.1 3.11,-4.23 -0.5,5.21 v 71.26 h -11.69 v 12.86 h 39.36 v -12.86 h -14.16 v -106.26 l -83.33,88.55 -3.07,4.2 0.47,-5.18 v -69.51 h 11.7 v -12.84 h -39.36 v 12.84"
         inkscape:connector-curvature="0" /><path
         id="path42"
         style="fill:#ffffff;fill-opacity:1;fill-rule:nonzero;stroke:none"
         d="m 2448.92,1411.35 c 0,-6.28 1.17,-12.11 3.5,-17.55 2.3,-5.46 5.51,-10.19 9.58,-14.25 4.08,-4.03 8.8,-7.24 14.22,-9.63 5.44,-2.39 11.26,-3.55 17.44,-3.55 6.17,0 11.99,1.16 17.43,3.55 5.42,2.39 10.17,5.6 14.23,9.63 4.06,4.06 7.27,8.79 9.57,14.25 2.38,5.44 3.52,11.27 3.52,17.55 0,6.24 -1.14,12.13 -3.52,17.57 -2.3,5.45 -5.51,10.19 -9.57,14.33 -4.06,4.1 -8.81,7.33 -14.23,9.68 -5.44,2.39 -11.26,3.56 -17.43,3.56 -6.18,0 -12,-1.17 -17.44,-3.56 -5.42,-2.35 -10.14,-5.58 -14.22,-9.68 -4.07,-4.14 -7.28,-8.88 -9.58,-14.33 -2.33,-5.44 -3.5,-11.33 -3.5,-17.57 z m -13.5,-0.09 c 0,7.93 1.48,15.43 4.55,22.54 3.05,7.1 7.18,13.34 12.45,18.63 5.27,5.34 11.39,9.54 18.46,12.62 7.02,3.14 14.6,4.68 22.59,4.68 7.97,0 15.47,-1.54 22.58,-4.68 7.1,-3.08 13.3,-7.28 18.62,-12.62 5.32,-5.29 9.5,-11.53 12.62,-18.63 3.09,-7.11 4.6,-14.61 4.6,-22.54 0,-8.02 -1.51,-15.56 -4.6,-22.61 -3.12,-7.06 -7.3,-13.2 -12.62,-18.45 -5.32,-5.28 -11.52,-9.43 -18.62,-12.47 -7.11,-3.04 -14.61,-4.57 -22.58,-4.57 -7.99,0 -15.57,1.53 -22.59,4.57 -7.07,3.04 -13.19,7.19 -18.46,12.47 -5.27,5.25 -9.4,11.39 -12.45,18.45 -3.07,7.05 -4.55,14.59 -4.55,22.61"
         inkscape:connector-curvature="0" /><path
         id="path44"
         style="fill:#ffffff;fill-opacity:1;fill-rule:nonzero;stroke:none"
         d="m 2615.36,1367.33 h 14.16 v 88.2 h -14.16 v 12.86 h 18.88 l 78.61,-85.1 3.08,-4.23 -0.46,5.21 v 71.26 h -11.72 v 12.86 h 39.38 v -12.86 h -14.15 v -106.26 l -83.34,88.55 -3.08,4.2 0.5,-5.18 v -69.51 h 11.68 v -12.84 h -39.38 v 12.84"
         inkscape:connector-curvature="0" /><path
         id="path46"
         style="fill:#ffffff;fill-opacity:1;fill-rule:nonzero;stroke:none"
         d="m 2806.57,1367.33 h 9.13 v 88.2 h -9.13 v 12.86 h 79.27 v -25.07 h -12.85 v 12.21 h -43.78 v -37.25 h 50.28 v -12.9 h -50.28 v -38.05 h 46.08 v 12.22 h 12.84 v -25.06 h -81.56 v 12.84"
         inkscape:connector-curvature="0" /><path
         id="path48"
         style="fill:#ffffff;fill-opacity:1;fill-rule:nonzero;stroke:none"
         d="m 3158.28,1438.28 -1.63,5.38 c -0.09,-0.22 -0.23,-0.59 -0.34,-1.15 -0.08,-0.53 -0.25,-1.11 -0.49,-1.77 -0.22,-0.76 -0.48,-1.61 -0.82,-2.46 -1.39,-3.15 -2.7,-6.25 -3.88,-9.25 -1.1,-2.63 -2.22,-5.44 -3.42,-8.49 -1.22,-3.04 -2.29,-5.72 -3.26,-8.14 h 24.8 z m -59.82,-70.95 h 13.25 c 7.49,17.91 15.02,35.62 22.53,53.14 7.59,17.53 15.09,35.26 22.57,53.15 7.46,-17.89 14.98,-35.62 22.52,-53.15 7.54,-17.52 15.08,-35.23 22.54,-53.14 h 13.42 v -12.84 h -35.96 v 12.84 h 9.04 c -2.27,5.42 -4.56,10.79 -6.77,16.11 -2.27,5.3 -4.52,10.67 -6.81,16.09 h -35.92 l -13.65,-32.2 h 9.36 v -12.84 h -36.12 v 12.84"
         inkscape:connector-curvature="0" /><path
         id="path50"
         style="fill:#ffffff;fill-opacity:1;fill-rule:nonzero;stroke:none"
         d="m 3388.47,1468.39 h 18.2 v -12.86 h -14.13 v -88.2 h 14.13 v -12.84 h -39.37 v 12.84 h 11.7 v 63.64 c 0.13,0.85 0.2,1.76 0.27,2.6 0.05,0.88 0.14,1.72 0.24,2.61 -0.88,-1.21 -1.73,-2.47 -2.64,-3.76 -0.83,-1.29 -1.71,-2.54 -2.59,-3.71 -6.51,-9.26 -13.33,-18.29 -20.46,-27.13 -7.11,-8.85 -14.1,-17.78 -20.93,-26.75 l -43.56,56.94 -2.92,4.41 c 0.13,-0.89 0.21,-1.73 0.24,-2.61 0.06,-0.84 0.14,-1.75 0.25,-2.6 v -63.64 h 11.71 v -12.84 h -39.37 v 12.84 h 14.16 v 88.2 h -14.16 v 12.86 h 18.26 c 9.29,-12.05 18.52,-24.07 27.66,-36.03 9.14,-12.01 18.38,-24.01 27.73,-36.08 9.35,12.07 18.6,24.07 27.77,36.08 9.2,11.96 18.43,23.98 27.81,36.03"
         inkscape:connector-curvature="0" /><path
         id="path52"
         style="fill:#ffffff;fill-opacity:1;fill-rule:nonzero;stroke:none"
         d="m 3510.42,1438.28 -1.62,5.38 c -0.12,-0.22 -0.22,-0.59 -0.33,-1.15 -0.09,-0.53 -0.27,-1.11 -0.48,-1.77 -0.21,-0.76 -0.5,-1.61 -0.82,-2.46 -1.42,-3.15 -2.7,-6.25 -3.91,-9.25 -1.1,-2.63 -2.22,-5.44 -3.4,-8.49 -1.21,-3.04 -2.29,-5.72 -3.29,-8.14 h 24.81 z m -59.79,-70.95 h 13.25 c 7.48,17.91 15.01,35.62 22.53,53.14 7.56,17.53 15.06,35.26 22.55,53.15 7.45,-17.89 15.02,-35.62 22.53,-53.15 7.55,-17.52 15.05,-35.23 22.54,-53.14 h 13.43 v -12.84 h -35.97 v 12.84 h 9.02 c -2.27,5.42 -4.53,10.79 -6.78,16.11 -2.24,5.3 -4.48,10.67 -6.81,16.09 h -35.88 l -13.65,-32.2 h 9.34 v -12.84 h -36.1 v 12.84"
         inkscape:connector-curvature="0" /><path
         id="path54"
         style="fill:#ffffff;fill-opacity:1;fill-rule:nonzero;stroke:none"
         d="m 3608.94,1369.59 v 18.91 h 12.85 v -14.47 c 2.84,-2.2 6.19,-4.06 10.12,-5.63 3.89,-1.59 8.3,-2.37 13.17,-2.37 2.82,0 5.55,0.41 8.13,1.21 2.59,0.85 4.92,2.01 6.92,3.61 2,1.56 3.61,3.53 4.83,5.9 1.16,2.4 1.77,5.18 1.77,8.32 0,5.65 -1.31,9.99 -3.92,13.01 -2.59,3.04 -5.88,5.42 -9.74,7.07 -3.91,1.7 -8.17,3.15 -12.7,4.34 -4.57,1.19 -8.81,2.83 -12.77,4.86 -3.98,2.1 -7.3,4.93 -9.92,8.63 -2.68,3.66 -4.05,8.9 -4.15,15.64 -0.11,3.56 0.38,7.14 1.47,10.72 1.06,3.57 2.83,6.84 5.35,9.77 2.48,2.91 5.81,5.34 9.92,7.16 4.12,1.87 9.18,2.76 15.13,2.76 1.97,0 4.1,-0.08 6.36,-0.34 2.26,-0.17 4.66,-0.62 7.12,-1.29 2.53,-0.63 5.09,-1.63 7.78,-2.9 2.63,-1.31 5.25,-3.05 7.88,-5.22 v -15.96 h -12.86 v 9.59 c -2.06,0.88 -4.45,1.64 -7.15,2.3 -2.74,0.66 -5.69,0.97 -8.96,0.97 -6.31,0 -10.96,-1.78 -14.01,-5.37 -3.05,-3.57 -4.56,-7.81 -4.56,-12.68 0,-3.25 0.79,-5.89 2.3,-7.9 1.51,-2.01 3.52,-3.69 6.02,-5.05 2.48,-1.33 5.36,-2.51 8.55,-3.48 3.18,-0.97 6.42,-2.07 9.74,-3.18 3.32,-1.13 6.57,-2.5 9.8,-4.06 3.2,-1.59 6.04,-3.64 8.5,-6.2 2.52,-2.55 4.52,-5.69 6.03,-9.45 1.53,-3.73 2.3,-8.36 2.3,-13.89 0,-4.88 -0.9,-9.26 -2.7,-13.2 -1.78,-3.89 -4.22,-7.21 -7.31,-10 -3.11,-2.77 -6.72,-4.87 -10.86,-6.37 -4.11,-1.42 -8.43,-2.19 -12.99,-2.19 -4.1,0 -8.12,0.46 -12.05,1.38 -3.91,0.95 -7.49,2.13 -10.75,3.69 -3.23,1.51 -6.15,3.25 -8.67,5.18 -2.56,1.97 -4.56,4.03 -5.97,6.18"
         inkscape:connector-curvature="0" /><path
         id="path56"
         style="fill:none;stroke:#393536;stroke-width:39.11220169;stroke-linecap:round;stroke-linejoin:round;stroke-miterlimit:10;stroke-dasharray:none;stroke-opacity:1"
         d="m 1515.5,2570.89 464.42,466.29 1119.2,-1090.72 H 2101.8"
         inkscape:connector-curvature="0" /><path
         id="path58"
         style="fill:none;stroke:#393536;stroke-width:39.11220169;stroke-linecap:round;stroke-linejoin:round;stroke-miterlimit:10;stroke-dasharray:none;stroke-opacity:1"
         d="m 339.918,1390.82 771.022,767.74"
         inkscape:connector-curvature="0" /></g></g></svg>